PathFileType	4	(X/Y/Z)	Walk5.trc
DataRate	CameraRate	NumFrames	NumMarkers	Units	OrigDataRate	OrigDataStartFrame	OrigNumFrames
200.000000	200.000000	9	58	mm	200.000000	365	695
Frame#	Times		LToe		RBHD		LWRR		LElbow		LACR1		C7		RMT5		RToe		RTB2		LCAR		RTB3		LWRU		RCAR		RMT1		LElbowM		RFA1		RMMAL		LTH3		LASI		RCAL		RWRU		RLFC		LTH4		RElbow		LTB2		LMMAL		LPSI		RASI		RElbowM		LCAL		RPSI		LLFC		RTH3		LBHD		T10		LTH2		RFHD		RBack		LMT5		LUA1		RUA1		LFHD		RLMAL		RMFC		LLMAL		LMFC		RACR1		LTB1		RWRR		LTB4		LTB3		RTH4		RTB1		LMT1		RTH1		RTB4		RTH2		LTH1
			X1	Y1	Z1	X2	Y2	Z2	X3	Y3	Z3	X4	Y4	Z4	X5	Y5	Z5	X6	Y6	Z6	X7	Y7	Z7	X8	Y8	Z8	X9	Y9	Z9	X10	Y10	Z10	X11	Y11	Z11	X12	Y12	Z12	X13	Y13	Z13	X14	Y14	Z14	X15	Y15	Z15	X16	Y16	Z16	X17	Y17	Z17	X18	Y18	Z18	X19	Y19	Z19	X20	Y20	Z20	X21	Y21	Z21	X22	Y22	Z22	X23	Y23	Z23	X24	Y24	Z24	X25	Y25	Z25	X26	Y26	Z26	X27	Y27	Z27	X28	Y28	Z28	X29	Y29	Z29	X30	Y30	Z30	X31	Y31	Z31	X32	Y32	Z32	X33	Y33	Z33	X34	Y34	Z34	X35	Y35	Z35	X36	Y36	Z36	X37	Y37	Z37	X38	Y38	Z38	X39	Y39	Z39	X40	Y40	Z40	X41	Y41	Z41	X42	Y42	Z42	X43	Y43	Z43	X44	Y44	Z44	X45	Y45	Z45	X46	Y46	Z46	X47	Y47	Z47	X48	Y48	Z48	X49	Y49	Z49	X50	Y50	Z50	X51	Y51	Z51	X52	Y52	Z52	X53	Y53	Z53	X54	Y54	Z54	X55	Y55	Z55	X56	Y56	Z56	X57	Y57	Z57	X58	Y58	Z58

365	1.825	-267.98	117.66	-45.314	-722.55	1592.8	-17.499	-849.09	819.57	-233.8	-818.79	1101.5	-247.64	-665.05	1402.5	-124.32	-755.29	1463.2	46.534	-881.48	19.021	145.08	-778.73	17.11	107.28	-847.84	265.26	136.48	-849.17	962.38	-248.51	-878.06	186.55	58.01	-790.45	782.03	-207.52	-581.98	789.33	326.23	-830.77	23.398	64.988	-870.7	1110.2	-180.05	-689.82	911.41	336.78	-947.12	77.11	24.243	-612.75	567.01	-115.48	-649.14	1012.5	-113.84	-1036.2	50.52	36.448	-652.19	797.98	305.93	-785.73	498.9	157.55	-637.25	657.2	-134.9	-744.59	1064.2	339.95	-503.25	317.1	-96.021	-431.22	91.858	3.2887	-849.03	1027.1	-17.483	-689.48	975.75	195.56	-783.35	1062.8	263.26	-499.58	25.054	-18.881	-858.83	1033.3	50.782	-604.78	509.11	-102.56	-778.68	547.34	166.23	-720.99	1587.4	119.23	-833.98	1208.8	35.542	-583.33	676.97	-89.064	-545.64	1628.5	11.409	-777.39	1349.1	197.42	-330.09	63.303	-93.136	-742.87	1219.9	-209.15	-678.16	1224.6	290.12	-545.01	1627	86.106	-981.18	80.315	99.405	-803.95	473.87	30.836	-453.91	70.016	-74.443	-597.79	484.8	27.744	-646.46	1403.1	201.2	-509.6	411.91	-27.164	-584.59	836.6	277.75	-486.32	322.32	-26.556	-461.36	232.91	-27.634	-701.54	638.18	152.54	-788.26	348.4	72.022	-298.96	82.319	-20.589	-764.21	760.83	203.82	-834.48	263.13	63.32	-767.98	637.66	186.2	-663.36	746.12	-148.56
366	1.83	-265.89	113.94	-44.944	-717.52	1592.2	-18.253	-844.17	818.97	-234.39	-813.71	1100.9	-248.28	-659.9	1401.9	-125	-750.19	1462.6	45.831	-881.55	18.976	145	-778.72	17.079	107.26	-846.19	265.15	136.28	-844.13	961.8	-249.16	-877.04	186.63	57.876	-785.62	781.38	-208	-577.35	788.75	325.92	-830.74	23.407	64.947	-865.7	1109.7	-180.74	-685.11	910.91	336.19	-946.86	77.617	24.234	-605.96	567.35	-115.22	-643.81	1011.8	-114.33	-1036	51.487	36.479	-647.35	797.61	305.72	-782.63	498.46	157.2	-630.61	657.42	-134.97	-739.78	1063.8	339.16	-498.81	316.02	-95.274	-429.29	89.939	4.1633	-843.64	1026.6	-17.933	-684.03	975.14	194.99	-778.44	1062.3	262.44	-498.6	24.79	-18.228	-853.5	1032.8	50.343	-598.67	508.86	-102.28	-775.34	546.86	165.72	-716	1586.8	118.48	-828.65	1208.2	35.02	-577.04	677.45	-88.786	-540.65	1628.1	10.734	-772.33	1348.5	196.72	-328.94	60.65	-92.868	-737.77	1219.3	-209.8	-673.27	1224.1	289.47	-540.04	1626.6	85.433	-980.84	81.02	99.437	-800.84	473.44	30.521	-452.27	68.798	-73.725	-591.97	484.69	28.09	-641.38	1402.6	200.59	-504.72	410.81	-26.435	-579.81	836	277.41	-482.22	321.03	-25.752	-458.08	231.41	-26.769	-697.64	637.32	152.1	-786.14	347.9	71.663	-297.02	78.799	-20.456	-758.96	761.7	203.35	-832.93	262.94	63.086	-764.06	637.17	185.75	-656.92	746.26	-148.93
367	1.835	-263.86	110.14	-44.568	-712.46	1591.7	-19.027	-839.13	818.37	-235	-808.56	1100.3	-248.9	-654.73	1401.3	-125.7	-745.07	1462.1	45.111	-881.61	18.935	144.89	-778.71	17.052	107.23	-844.5	265.1	136.07	-838.99	961.2	-249.82	-875.99	186.77	57.737	-780.65	780.73	-208.52	-572.78	788.18	325.59	-830.71	23.421	64.912	-860.62	1109.1	-181.41	-680.44	910.43	335.56	-946.58	78.187	24.238	-599.26	567.69	-114.89	-638.5	1011.2	-114.84	-1035.9	52.564	36.503	-642.65	797.23	305.42	-779.45	498.04	156.83	-624.02	657.66	-134.94	-734.99	1063.3	338.34	-494.36	315.02	-94.545	-427.43	88.071	4.9876	-838.24	1026.1	-18.362	-678.52	974.54	194.38	-773.54	1061.9	261.58	-497.73	24.701	-17.645	-848.16	1032.3	49.921	-592.6	508.67	-102.03	-771.93	546.39	165.15	-710.98	1586.3	117.7	-823.32	1207.6	34.498	-570.7	677.9	-88.535	-535.63	1627.8	10.039	-767.25	1348.1	196.01	-327.87	57.959	-92.619	-732.6	1218.7	-210.46	-668.38	1223.6	288.79	-535.04	1626.3	84.738	-980.49	81.808	99.474	-797.67	473.04	30.187	-450.67	67.667	-73.064	-586.24	484.61	28.385	-636.28	1402.1	199.97	-499.89	409.76	-25.696	-575.08	835.41	277.05	-478.17	319.79	-24.954	-454.86	229.97	-25.925	-693.69	636.49	151.63	-783.97	347.47	71.277	-295.17	75.246	-20.347	-753.56	762.53	202.85	-831.33	262.8	62.85	-760.08	636.71	185.28	-650.46	746.43	-149.21
368	1.84	-261.86	106.3	-44.175	-707.37	1591.3	-19.818	-833.97	817.75	-235.65	-803.32	1099.7	-249.52	-649.53	1400.8	-126.42	-739.91	1461.6	44.377	-881.69	18.897	144.76	-778.71	17.028	107.21	-842.76	265.11	135.86	-833.74	960.6	-250.5	-874.89	186.99	57.597	-775.56	780.08	-209.09	-568.29	787.63	325.25	-830.68	23.441	64.886	-855.45	1108.5	-182.07	-675.83	910	334.89	-946.26	78.835	24.26	-592.7	568.02	-114.52	-633.2	1010.7	-115.38	-1035.6	53.771	36.525	-638.1	796.81	305	-776.18	497.66	156.43	-617.52	657.91	-134.83	-730.21	1063	337.48	-489.88	314.11	-93.851	-425.61	86.284	5.7506	-832.85	1025.6	-18.77	-672.96	973.95	193.73	-768.65	1061.5	260.68	-496.93	24.787	-17.136	-842.8	1031.9	49.515	-586.59	508.52	-101.81	-768.42	545.96	164.54	-705.93	1585.9	116.91	-817.97	1207.1	33.977	-564.32	678.32	-88.319	-530.58	1627.5	9.3258	-762.13	1347.7	195.28	-326.84	55.274	-92.385	-727.36	1218.1	-211.11	-663.48	1223.2	288.09	-530.01	1626.1	84.024	-980.11	82.693	99.52	-794.43	472.66	29.838	-449.08	66.64	-72.468	-580.64	484.55	28.619	-631.14	1401.7	199.34	-495.09	408.78	-24.963	-570.42	834.85	276.67	-474.15	318.62	-24.178	-451.68	228.61	-25.117	-689.67	635.71	151.13	-781.73	347.1	70.876	-293.36	71.716	-20.247	-748.04	763.32	202.32	-829.68	262.72	62.615	-756.04	636.28	184.78	-644.02	746.62	-149.38
369	1.845	-259.86	102.49	-43.757	-702.25	1590.8	-20.626	-828.69	817.14	-236.33	-798	1099.1	-250.13	-644.3	1400.3	-127.16	-734.72	1461.2	43.627	-881.77	18.861	144.6	-778.72	17.006	107.18	-840.95	265.19	135.66	-828.39	960	-251.19	-873.73	187.28	57.461	-770.33	779.44	-209.7	-563.87	787.1	324.88	-830.64	23.466	64.869	-850.18	1107.9	-182.72	-671.26	909.59	334.2	-945.9	79.573	24.307	-586.3	568.33	-114.12	-627.92	1010.1	-115.93	-1035.4	55.128	36.55	-633.76	796.32	304.41	-772.8	497.31	156.01	-611.13	658.16	-134.64	-725.44	1062.6	336.59	-485.37	313.31	-93.205	-423.8	84.601	6.4429	-827.45	1025.3	-19.162	-667.35	973.38	193.06	-763.77	1061.2	259.75	-496.16	25.036	-16.703	-837.44	1031.5	49.122	-580.66	508.44	-101.63	-764.79	545.55	163.91	-700.85	1585.5	116.1	-812.62	1206.6	33.455	-557.95	678.7	-88.143	-525.5	1627.3	8.5942	-756.98	1347.3	194.54	-325.82	52.631	-92.161	-722.07	1217.6	-211.75	-658.57	1222.9	287.36	-524.95	1625.9	83.29	-979.69	83.687	99.58	-791.1	472.31	29.478	-447.48	65.721	-71.943	-575.18	484.51	28.782	-625.97	1401.4	198.68	-490.32	407.89	-24.254	-565.82	834.3	276.26	-470.16	317.54	-23.44	-448.54	227.34	-24.357	-685.58	634.98	150.6	-779.4	346.79	70.471	-291.6	68.254	-20.146	-742.39	764.06	201.78	-827.95	262.7	62.385	-751.91	635.89	184.25	-637.63	746.84	-149.46
370	1.85	-257.89	98.736	-43.305	-697.1	1590.5	-21.449	-823.3	816.54	-237.04	-792.6	1098.5	-250.73	-639.05	1399.9	-127.9	-729.49	1460.8	42.866	-881.86	18.83	144.41	-778.74	16.983	107.16	-839.06	265.35	135.47	-822.94	959.39	-251.88	-872.5	187.67	57.335	-764.97	778.81	-210.35	-559.53	786.58	324.5	-830.6	23.493	64.864	-844.83	1107.3	-183.35	-666.74	909.23	333.47	-945.49	80.417	24.383	-580.07	568.63	-113.69	-622.63	1009.7	-116.48	-1035.1	56.656	36.583	-629.66	795.73	303.6	-769.28	496.99	155.58	-604.87	658.41	-134.39	-720.69	1062.3	335.67	-480.84	312.61	-92.621	-422.02	83.039	7.0587	-822.06	1024.9	-19.54	-661.71	972.85	192.35	-758.91	1060.9	258.78	-495.39	25.423	-16.347	-832.08	1031.1	48.741	-574.81	508.42	-101.49	-761.02	545.17	163.25	-695.73	1585.2	115.27	-807.26	1206.3	32.932	-551.61	679.03	-88.01	-520.39	1627.1	7.8456	-751.81	1347	193.8	-324.78	50.057	-91.946	-716.71	1217	-212.39	-653.63	1222.5	286.61	-519.85	1625.7	82.538	-979.23	84.804	99.66	-787.66	471.99	29.112	-445.84	64.909	-71.493	-569.87	484.48	28.867	-620.77	1401.1	198.01	-485.57	407.09	-23.585	-561.3	833.78	275.83	-466.18	316.57	-22.753	-445.43	226.17	-23.657	-681.39	634.3	150.05	-776.96	346.55	70.076	-289.88	64.893	-20.03	-736.61	764.76	201.22	-826.14	262.75	62.165	-747.7	635.53	183.71	-631.32	747.07	-149.44
371	1.855	-255.94	95.076	-42.817	-691.92	1590.2	-22.284	-817.78	815.95	-237.78	-787.1	1097.9	-251.31	-633.77	1399.5	-128.66	-724.23	1460.5	42.093	-881.96	18.804	144.21	-778.77	16.959	107.13	-837.07	265.58	135.3	-817.39	958.8	-252.58	-871.18	188.15	57.228	-759.48	778.19	-211.05	-555.27	786.09	324.1	-830.56	23.52	64.874	-839.37	1106.7	-183.97	-662.27	908.9	332.72	-945.02	81.381	24.497	-574.02	568.91	-113.26	-617.35	1009.3	-117.03	-1034.7	58.376	36.631	-625.86	795	302.51	-765.59	496.7	155.13	-598.75	658.67	-134.1	-715.94	1062.1	334.71	-476.29	312.02	-92.106	-420.26	81.604	7.5956	-816.68	1024.7	-19.909	-656.03	972.37	191.61	-754.04	1060.7	257.78	-494.64	25.919	-16.069	-826.72	1030.8	48.37	-569.03	508.47	-101.39	-757.1	544.83	162.6	-690.58	1584.9	114.44	-801.91	1206	32.408	-545.33	679.33	-87.919	-515.25	1627	7.0812	-746.6	1346.8	193.05	-323.74	47.572	-91.741	-711.28	1216.5	-213.02	-648.68	1222.3	285.83	-514.72	1625.6	81.77	-978.7	86.059	99.765	-784.09	471.69	28.745	-444.2	64.195	-71.122	-564.72	484.49	28.873	-615.53	1400.8	197.33	-480.84	406.38	-22.969	-556.84	833.28	275.37	-462.23	315.69	-22.128	-442.35	225.11	-23.025	-677.1	633.69	149.48	-774.4	346.35	69.704	-288.21	61.654	-19.892	-730.7	765.4	200.65	-824.21	262.87	61.96	-743.37	635.2	183.15	-625.1	747.31	-149.36
372	1.86	-254.05	91.526	-42.298	-686.71	1589.9	-23.13	-812.15	815.37	-238.55	-781.52	1097.3	-251.88	-628.46	1399.2	-129.43	-718.94	1460.3	41.312	-882.06	18.789	143.99	-778.82	16.932	107.11	-834.96	265.9	135.16	-811.73	958.22	-253.27	-869.77	188.73	57.147	-753.86	777.59	-211.78	-551.1	785.62	323.68	-830.53	23.545	64.9	-833.83	1106	-184.56	-657.84	908.63	331.93	-944.48	82.481	24.653	-568.13	569.17	-112.84	-612.07	1009	-117.58	-1034.3	60.31	36.7	-622.4	794.08	301.07	-761.71	496.45	154.67	-592.78	658.92	-133.78	-711.21	1061.9	333.72	-471.74	311.52	-91.665	-418.57	80.3	8.054	-811.3	1024.5	-20.274	-650.34	971.95	190.85	-749.19	1060.6	256.75	-493.9	26.489	-15.864	-821.35	1030.5	48.006	-563.3	508.61	-101.35	-752.99	544.52	161.96	-685.4	1584.7	113.59	-796.55	1205.7	31.885	-539.13	679.59	-87.868	-510.08	1627	6.302	-741.37	1346.6	192.29	-322.7	45.189	-91.553	-705.78	1215.9	-213.64	-643.7	1222	285.03	-509.55	1625.6	80.988	-978.11	87.464	99.901	-780.36	471.42	28.384	-442.57	63.567	-70.827	-559.71	484.52	28.799	-610.25	1400.6	196.64	-476.13	405.77	-22.412	-552.47	832.81	274.9	-458.3	314.9	-21.571	-439.31	224.14	-22.467	-672.68	633.14	148.89	-771.68	346.21	69.367	-286.62	58.551	-19.73	-724.68	765.99	200.05	-822.17	263.08	61.776	-738.93	634.91	182.58	-619	747.57	-149.22
373	1.865	-252.23	88.101	-41.766	-681.45	1589.7	-23.985	-806.4	814.82	-239.35	-775.84	1096.8	-252.43	-623.13	1398.9	-130.2	-713.61	1460.1	40.525	-882.16	18.789	143.76	-778.89	16.902	107.08	-832.71	266.32	135.06	-805.97	957.66	-253.96	-868.23	189.42	57.102	-748.11	777.01	-212.55	-547.02	785.17	323.24	-830.49	23.564	64.946	-828.19	1105.4	-185.14	-653.46	908.4	331.11	-943.85	83.73	24.86	-562.39	569.42	-112.46	-606.79	1008.7	-118.13	-1033.8	62.48	36.798	-619.34	792.94	299.21	-757.6	496.23	154.21	-586.94	659.18	-133.46	-706.48	1061.8	332.7	-467.21	311.11	-91.299	-416.95	79.128	8.4359	-805.94	1024.4	-20.639	-644.63	971.59	190.06	-744.33	1060.6	255.69	-493.18	27.102	-15.728	-815.99	1030.3	47.648	-557.62	508.83	-101.36	-748.69	544.24	161.34	-680.18	1584.5	112.74	-791.2	1205.6	31.362	-533.03	679.82	-87.853	-504.87	1627	5.5094	-736.11	1346.5	191.53	-321.69	42.917	-91.388	-700.22	1215.5	-214.25	-638.71	1221.9	284.2	-504.35	1625.6	80.192	-977.43	89.033	100.08	-776.44	471.17	28.037	-440.98	63.013	-70.604	-554.85	484.59	28.649	-604.94	1400.4	195.93	-471.42	405.23	-21.922	-548.17	832.36	274.4	-454.4	314.2	-21.089	-436.32	223.27	-21.985	-668.12	632.67	148.28	-768.8	346.1	69.078	-285.12	55.592	-19.549	-718.54	766.53	199.44	-819.97	263.37	61.623	-734.34	634.66	182	-613.01	747.83	-149.05
